<?xml version="1.0" encoding="UTF-8"?>
<svg xmlns="http://www.w3.org/2000/svg" viewBox="0 0 240 80">
  <title>Child Flames Modern Lure Mark (Preview)</title>
  <rect x="0" y="0" width="240" height="80" rx="14" fill="#fbfaf6"/>
  <g transform="translate(24,8) scale(1)">
    <svg xmlns="http://www.w3.org/2000/svg" viewBox="0 0 64 64" width="64" height="64">
      <path fill="#0b1f1b" d="M45.6 15.1c-8.3-3.2-17.2-2.9-26.4.8-1 .4-1.5 1.6-1.1 2.6.4 1 1.6 1.5 2.6 1.1 8.2-3.2 16-3.5 23.2-.9.9.3 1.8.8 2.6 1.4l-4 2.7c-.9.6-1.1 1.8-.5 2.7.4.6 1 .9 1.6.9.4 0 .8-.1 1.1-.3l6.6-4.5c.5-.4.9-1 .9-1.7 0-.7-.3-1.3-.9-1.7-1.7-1.2-3.6-2.2-5.7-3.1Z"/>
      <path fill="#0b1f1b" d="M19.2 24.8c-.8-.7-2.1-.6-2.8.2-2.9 3.2-4.4 6.6-4.4 10.3 0 3.6 1.4 6.9 4.1 9.9.7.8 2 .9 2.8.2.8-.7.9-2 .2-2.8-2.1-2.3-3.1-4.7-3.1-7.3 0-2.6 1.1-5.2 3.4-7.7.7-.8.6-2.1-.2-2.8Z"/>
      <path fill="#0b1f1b" d="M54 33.2c-1.1-2.4-2.7-4.6-4.7-6.5-5.3-5-12.2-7.4-20.6-7.4-1.1 0-2 .9-2 2s.9 2 2 2c7.4 0 13.3 2.1 17.9 6.4 2.2 2.1 3.8 4.6 4.7 7.5-1.8 5.9-6.4 9.7-14.2 11.3-1.1.2-1.8 1.3-1.5 2.4.2.9 1 1.6 2 1.6h.4c9.4-1.9 15.3-6.8 17.7-14.7.2-.5.2-1.1 0-1.6Z"/>
      <path fill="#0b1f1b" d="M26.8 50.6c-.8 0-1.5-.4-1.8-1.2-1.3-3.2-4.2-4.8-8.8-4.8-1.1 0-2-.9-2-2s.9-2 2-2c5.7 0 9.8 2.4 12.4 7.1.4 1 0 2.2-1 2.7-.3.1-.6.2-.8.2Z"/>
    </svg>
  </g>
  <text x="108" y="44" fill="#0b1f1b" font-family="Manrope, system-ui, -apple-system, Segoe UI, sans-serif" font-size="18" font-weight="800">Northerns Inc.</text>
  <text x="108" y="62" fill="#2b3c36" font-family="Manrope, system-ui, -apple-system, Segoe UI, sans-serif" font-size="11" letter-spacing="2">LURE MARK PREVIEW</text>
</svg>
